<?xml version="1.0" encoding="UTF-8"?>
<svg width="16px" height="14px" viewBox="0 0 16 14" version="1.1" xmlns="http://www.w3.org/2000/svg" xmlns:xlink="http://www.w3.org/1999/xlink">
    <!-- Generator: Sketch Beta 48.2 (47327) - http://www.bohemiancoding.com/sketch -->
    <title>Shape</title>
    <desc>Created with Sketch Beta.</desc>
    <defs></defs>
    <g id="HIHIHI" stroke="none" stroke-width="1" fill="none" fill-rule="evenodd" transform="translate(-402.000000, -84.000000)">
        <g id="Group" transform="translate(44.000000, 36.000000)" fill="#FFFFFF" fill-rule="nonzero">
            <g id="Input-Wrapper" transform="translate(16.000000, 39.000000)">
                <g id="Recent" transform="translate(338.000000, 6.000000)">
                    <path d="M13.14,3 C9.35451668,3 6.28500001,6.06951668 6.28500001,9.85500002 L4,9.85500002 L6.96288334,12.8178834 L7.01620001,12.9245167 L10.0933334,9.85500002 L7.80833334,9.85500002 C7.80833334,6.90735001 10.19235,4.52333334 13.14,4.52333334 C16.08765,4.52333334 18.4716667,6.90735001 18.4716667,9.85500002 C18.4716667,12.80265 16.08765,15.1866667 13.14,15.1866667 C11.6699834,15.1866667 10.3370667,14.58495 9.37736668,13.6176334 L8.29580001,14.6992 C9.53731668,15.9407167 11.24345,16.71 13.14,16.71 C16.9254834,16.71 19.995,13.6404834 19.995,9.85500002 C19.995,6.06951668 16.9254834,3 13.14,3 Z M12.3783334,7.37958335 L12.3783334,10.6166667 L15.1771378,12.2776394 C15.4318995,12.4288298 15.7609783,12.3450763 15.9124667,12.0904917 L15.9124667,12.0904917 C16.0638187,11.8361363 15.9803179,11.5072455 15.7259625,11.3558935 C15.7258768,11.3558425 15.7257911,11.3557916 15.7257054,11.3557406 L13.5208334,10.0454167 L13.5208334,7.37958335 C13.5208334,7.06409068 13.265076,6.80833334 12.9495834,6.80833334 L12.9495834,6.80833334 C12.6340907,6.80833334 12.3783334,7.06409068 12.3783334,7.37958335 Z" id="Shape"></path>
                </g>
            </g>
        </g>
    </g>
</svg>