<?xml version="1.0" encoding="UTF-8"?>
<svg width="21px" height="21px" viewBox="0 0 21 21" version="1.1" xmlns="http://www.w3.org/2000/svg" xmlns:xlink="http://www.w3.org/1999/xlink">
    <!-- Generator: Sketch 64 (93537) - https://sketch.com -->
    <title>layerList_ic</title>
    <desc>Created with Sketch.</desc>
    <g id="Page-1" stroke="none" stroke-width="1" fill="none" fill-rule="evenodd">
        <g id="layerList_ic" transform="translate(10.500000, 10.500000) scale(1, -1) rotate(-90.000000) translate(-10.500000, -10.500000) translate(-0.000000, 0.000000)">
            <rect id="Rectangle" fill="#78909C" opacity="0.3" x="0" y="0" width="2" height="21" rx="1"></rect>
            <rect id="Rectangle" fill="#78909C" opacity="0.3" x="3.8" y="0" width="2" height="21" rx="1"></rect>
            <rect id="Rectangle" fill="#78909C" opacity="0.3" x="7.6" y="0" width="2" height="21" rx="1"></rect>
            <rect id="Rectangle" fill="#78909C" opacity="0.3" x="11.4" y="0" width="2" height="10" rx="1"></rect>
            <rect id="Rectangle" fill="#78909C" opacity="0.3" x="15.2" y="0" width="2" height="10" rx="1"></rect>
            <rect id="Rectangle" fill="#78909C" opacity="0.3" x="19" y="0" width="2" height="10" rx="1"></rect>
            <line x1="15.5" y1="12.5" x2="15.5" y2="19.5" id="Path" stroke="#1384FF" stroke-width="2" stroke-linecap="round" stroke-linejoin="round" transform="translate(15.500000, 16.000000) rotate(-90.000000) translate(-15.500000, -16.000000) "></line>
            <polyline id="Path" stroke="#1384FF" stroke-width="2" stroke-linecap="round" stroke-linejoin="round" transform="translate(17.474874, 15.974874) rotate(-45.000000) translate(-17.474874, -15.974874) " points="19.2248737 14.2248737 19.2248737 17.7248737 15.7248737 17.7248737"></polyline>
        </g>
    </g>
</svg>