<?xml version="1.0" encoding="UTF-8"?>
<svg width="30px" height="36px" viewBox="0 0 30 36" version="1.1" xmlns="http://www.w3.org/2000/svg" xmlns:xlink="http://www.w3.org/1999/xlink">
    <!-- Generator: Sketch 46 (44423) - http://www.bohemiancoding.com/sketch -->
    <title>fork_icon</title>
    <desc>Created with Sketch.</desc>
    <defs></defs>
    <g id="Website" stroke="none" stroke-width="1" fill="none" fill-rule="evenodd">
        <g id="Desktop-HD" transform="translate(-462.000000, -4260.000000)" fill-rule="nonzero" fill="#383F47">
            <g id="Group-14" transform="translate(0.000000, 3999.000000)">
                <g id="download_btn" transform="translate(429.000000, 238.000000)">
                    <g id="fork_icon" transform="translate(33.000000, 18.000000)">
                        <path d="M30,20 L24,12.5 L18,20 L22.5,20 L22.5,24.365 C22.5,26.6525 21.2295,28.709 19.1835,29.732 L16.5,31.073 L16.5,12.5 L21,12.5 L15,5 L9,12.5 L13.5,12.5 L13.5,33.5 L13.5,34.073 L10.8165,32.7305 C8.7705,31.709 7.5,29.6525 7.5,27.365 L7.5,24.5 L12,24.5 L6,17 L0,24.5 L4.5,24.5 L4.5,27.365 C4.5,30.797 6.4065,33.881 9.474,35.4155 L13.5,37.427 L13.5,41 L16.5,41 L16.5,36.5 L16.5,34.427 L20.526,32.414 C23.5935,30.8795 25.5,27.7955 25.5,24.365 L25.5,20 L30,20 Z" id="Shape"></path>
                    </g>
                </g>
            </g>
        </g>
    </g>
</svg>