<?xml version="1.0" encoding="UTF-8"?>
<svg width="41px" height="40px" viewBox="0 0 41 40" version="1.1" xmlns="http://www.w3.org/2000/svg" xmlns:xlink="http://www.w3.org/1999/xlink">
    <!-- Generator: Sketch 46 (44423) - http://www.bohemiancoding.com/sketch -->
    <title>github_icon</title>
    <desc>Created with Sketch.</desc>
    <defs></defs>
    <g id="Website" stroke="none" stroke-width="1" fill="none" fill-rule="evenodd">
        <g id="Desktop-HD" transform="translate(-1078.000000, -3606.000000)" fill="#383F47">
            <g id="Group-14" transform="translate(0.000000, 3348.000000)">
                <g id="download_btn" transform="translate(1048.000000, 238.000000)">
                    <g id="github_icon" transform="translate(30.000000, 20.000000)">
                        <path d="M20.1805148,0.498364773 C9.03672023,0.498364773 0,9.53396659 0,20.6813518 C0,29.5971577 5.78214136,37.1615218 13.8025641,39.8305673 C14.8116886,40.0156682 15.1800236,39.392605 15.1800236,38.8577532 C15.1800236,38.3786536 15.162558,37.109478 15.1527698,35.4252632 C9.5388775,36.6448757 8.35433091,32.7199073 8.35433091,32.7199073 C7.43663841,30.3884616 6.11356886,29.767753 6.11356886,29.767753 C4.28116909,28.5155552 6.25220955,28.5409507 6.25220955,28.5409507 C8.27751386,28.6836782 9.34349227,30.6207627 9.34349227,30.6207627 C11.143803,33.7048641 14.0669627,32.8143077 15.216948,32.29767 C15.4003082,30.9934368 15.9216634,30.104125 16.4982664,29.5996216 C12.0167675,29.0902914 7.30543977,27.358868 7.30543977,19.6251448 C7.30543977,17.4219293 8.09179909,15.6203909 9.38277114,14.2096061 C9.17525159,13.6990398 8.48267886,11.6471039 9.58062864,8.86853 C9.58062864,8.86853 11.2751277,8.32587455 15.1304689,10.9374439 C16.7402295,10.4898111 18.4666916,10.2659359 20.1830039,10.2581323 C21.8968355,10.2659359 23.6234236,10.4898111 25.2355389,10.9374439 C29.0885255,8.32587455 30.77993,8.86853 30.77993,8.86853 C31.8809743,11.6471039 31.1882839,13.6990398 30.9807643,14.2096061 C32.274217,15.6203909 33.055245,17.4219377 33.055245,19.6251448 C33.055245,27.3782005 28.3366098,29.08422 23.8406136,29.5838882 C24.565267,30.2069514 25.2107573,31.4387066 25.2107573,33.3212834 C25.2107573,36.0193234 25.1859757,38.196025 25.1859757,38.8577448 C25.1859757,39.3974234 25.5494839,40.0253218 26.5737195,39.8282043 C34.5863134,37.1542059 40.3636364,29.5948032 40.3636364,20.6813518 C40.3636364,9.53396659 31.32679,0.498364773 20.1805148,0.498364773 Z" id="Shape"></path>
                    </g>
                </g>
            </g>
        </g>
    </g>
</svg>