<?xml version="1.0" encoding="UTF-8"?>
<svg width="28px" height="23px" viewBox="0 0 28 23" version="1.1" xmlns="http://www.w3.org/2000/svg" xmlns:xlink="http://www.w3.org/1999/xlink">
    <!-- Generator: Sketch 46 (44423) - http://www.bohemiancoding.com/sketch -->
    <title>twitter_icon</title>
    <desc>Created with Sketch.</desc>
    <defs></defs>
    <g id="Symbols" stroke="none" stroke-width="1" fill="none" fill-rule="evenodd">
        <g id="Button/Icon/Twitter" transform="translate(-6.000000, -20.000000)" fill-rule="nonzero" fill="#FFFFFF">
            <g id="twitter_icon" transform="translate(6.000000, 20.000000)">
                <path d="M28,3.03333333 C26.95,3.5 25.9,3.85 24.7333333,3.96666667 C25.9,3.26666667 26.8333333,2.1 27.3,0.816666667 C26.1333333,1.51666667 24.9666667,1.98333333 23.6833333,2.21666667 C22.6333333,1.05 21.1166667,0.35 19.4833333,0.35 C16.3333333,0.35 13.7666667,2.91666667 13.7666667,6.06666667 C13.7666667,6.53333333 13.7666667,7 13.8833333,7.35 C8.98333333,7.11666667 4.78333333,4.78333333 1.98333333,1.28333333 C1.4,2.21666667 1.16666667,3.15 1.16666667,4.2 C1.16666667,6.18333333 2.21666667,7.93333333 3.73333333,8.98333333 C2.8,8.98333333 1.86666667,8.75 1.16666667,8.28333333 C1.16666667,8.28333333 1.16666667,8.28333333 1.16666667,8.4 C1.16666667,11.2 3.15,13.5333333 5.71666667,14 C5.25,14.1166667 4.78333333,14.2333333 4.2,14.2333333 C3.85,14.2333333 3.5,14.2333333 3.15,14.1166667 C3.85,16.45 5.95,18.0833333 8.51666667,18.0833333 C6.53333333,19.6 4.08333333,20.5333333 1.4,20.5333333 C0.933333333,20.5333333 0.466666667,20.5333333 1.77635684e-15,20.4166667 C2.56666667,22.05 5.6,22.9833333 8.75,22.9833333 C19.3666667,22.9833333 25.0833333,14.2333333 25.0833333,6.65 C25.0833333,6.41666667 25.0833333,6.18333333 25.0833333,5.95 C26.25,5.13333333 27.1833333,4.08333333 28,3.03333333 Z" id="Shape"></path>
            </g>
        </g>
    </g>
</svg>