<?xml version="1.0" encoding="UTF-8"?>
<svg width="29px" height="14px" viewBox="0 0 29 14" version="1.1" xmlns="http://www.w3.org/2000/svg" xmlns:xlink="http://www.w3.org/1999/xlink">
    <!-- Generator: Sketch Beta 52.4 (67378) - http://www.bohemiancoding.com/sketch -->
    <title>Group</title>
    <desc>Created with Sketch Beta.</desc>
    <g id="Page-1" stroke="none" stroke-width="1" fill="none" fill-rule="evenodd">
        <g id="Artboard-Copy" transform="translate(-331.000000, -51.000000)" fill="#747474">
            <g id="Recent" transform="translate(326.000000, 46.000000)">
                <g id="Group" transform="translate(5.000000, 5.000000)">
                    <path d="M9.14000003,8.8817842e-16 C5.35451668,8.8817842e-16 2.28500001,3.06951668 2.28500001,6.85500002 L-7.54951657e-14,6.85500002 L2.96288334,9.81788336 L3.01620001,9.92451669 L6.09333335,6.85500002 L3.80833334,6.85500002 C3.80833334,3.90735001 6.19235002,1.52333334 9.14000003,1.52333334 C12.08765,1.52333334 14.4716667,3.90735001 14.4716667,6.85500002 C14.4716667,9.80265003 12.08765,12.1866667 9.14000003,12.1866667 C7.66998335,12.1866667 6.33706668,11.58495 5.37736668,10.6176334 L4.29580001,11.6992 C5.53731668,12.9407167 7.24345002,13.71 9.14000003,13.71 C12.9254834,13.71 15.995,10.6404834 15.995,6.85500002 C15.995,3.06951668 12.9254834,8.8817842e-16 9.14000003,8.8817842e-16 Z M8.37833336,4.37958335 L8.37833336,7.61666669 L11.1771378,9.27763943 C11.4318995,9.42882978 11.7609783,9.34507629 11.9124667,9.09049169 L11.9124667,9.09049169 C12.0638187,8.8361363 11.9803179,8.5072455 11.7259625,8.35589353 C11.7258768,8.35584254 11.7257911,8.35579157 11.7257054,8.35574063 L9.52083336,7.04541669 L9.52083336,4.37958335 C9.52083336,4.06409068 9.26507602,3.80833334 8.94958336,3.80833334 L8.94958336,3.80833334 C8.63409069,3.80833334 8.37833336,4.06409068 8.37833336,4.37958335 Z" id="Shape" fill-rule="nonzero"></path>
                    <path d="M28.631728,5.85355339 L25.5961941,8.8890873 C25.4009319,9.08434944 25.0843494,9.08434944 24.8890873,8.8890873 L21.8535534,5.85355339 C21.6582912,5.65829124 21.6582912,5.34170876 21.8535534,5.14644661 C21.9473216,5.05267842 22.0744985,5 22.2071068,5 L28.2781746,5 C28.554317,5 28.7781746,5.22385763 28.7781746,5.5 C28.7781746,5.63260824 28.7254962,5.7597852 28.631728,5.85355339 Z" id="Rectangle-4"></path>
                </g>
            </g>
        </g>
    </g>
</svg>